{"glyphs":{"0":{"ha":694,"x_min":0,"x_max":0,"o":"m 424 279 b 349 149 424 243 428 151 b 271 279 271 149 271 218 l 271 747 b 349 868 271 806 274 868 b 424 747 432 868 424 763 z m 39 263 b 346 -25 39 61 151 -25 b 656 313 583 -25 656 85 l 656 688 b 349 1042 660 921 599 1042 b 39 747 150 1042 39 956 z "},"1":{"ha":694,"x_min":0,"x_max":0,"o":"m 264 0 l 485 0 l 485 1019 l 328 1019 b 51 863 303 896 164 861 l 51 703 l 264 703 z "},"2":{"ha":694,"x_min":0,"x_max":0,"o":"m 254 665 l 254 715 b 335 868 254 768 261 864 b 422 765 399 874 422 818 b 356 589 422 689 406 644 l 250 478 b 32 35 139 356 32 207 l 32 0 l 656 0 l 656 188 l 296 188 b 433 369 308 246 396 333 l 524 457 b 654 756 613 550 654 625 b 353 1042 654 949 540 1042 b 33 719 143 1042 33 925 l 33 665 z "},"3":{"ha":694,"x_min":0,"x_max":0,"o":"m 218 447 b 367 428 265 443 324 453 b 419 282 411 400 419 329 b 335 149 419 222 410 149 b 246 335 236 149 250 265 l 26 335 l 28 264 b 329 -25 39 79 139 -25 b 651 282 532 -25 651 72 b 486 539 651 393 614 507 l 486 542 b 626 774 586 589 626 664 b 329 1042 626 964 507 1042 b 28 790 185 1042 33 946 l 26 714 l 249 714 b 324 865 251 769 243 865 b 406 758 389 865 406 818 b 361 642 406 722 393 664 b 218 614 321 613 265 617 z "},"4":{"ha":694,"x_min":0,"x_max":0,"o":"m 188 372 l 357 710 l 360 710 l 360 372 z m 13 199 l 360 199 l 360 0 l 581 0 l 581 199 l 672 199 l 672 372 l 581 372 l 581 1019 l 338 1019 l 13 393 z "},"5":{"ha":694,"x_min":0,"x_max":0,"o":"m 253 451 b 335 528 257 500 286 528 b 425 321 435 528 425 386 b 333 149 425 267 425 139 b 261 307 256 157 267 257 l 42 307 l 42 228 b 338 -25 74 58 158 -25 b 657 342 582 -25 657 117 b 404 701 657 518 621 701 b 242 638 339 701 290 681 l 251 832 l 614 832 l 614 1019 l 75 1019 l 49 451 z "},"6":{"ha":694,"x_min":0,"x_max":0,"o":"m 347 149 b 269 239 293 149 269 190 l 269 392 b 344 497 271 444 283 497 b 426 389 410 497 426 443 l 426 285 b 347 149 426 224 413 149 z m 643 772 b 326 1042 636 982 524 1042 b 38 617 65 1042 38 833 l 38 342 b 339 -25 38 133 106 -25 b 658 358 596 -25 658 124 b 428 671 658 515 617 671 b 269 619 358 671 325 661 l 269 689 b 346 868 269 749 257 868 b 407 840 378 868 396 858 b 422 772 418 824 422 800 z "},"7":{"ha":694,"x_min":0,"x_max":0,"o":"m 33 832 l 414 832 l 306 590 b 144 0 244 457 144 142 l 385 0 b 446 351 399 125 414 231 b 633 846 490 522 546 692 l 633 1019 l 33 1019 z "},"8":{"ha":694,"x_min":0,"x_max":0,"o":"m 346 144 b 261 301 264 144 261 243 b 343 460 261 367 253 460 b 433 306 431 460 433 371 b 346 144 433 240 435 144 z m 267 746 b 350 874 267 807 275 874 b 431 751 415 874 431 803 b 344 626 431 693 417 626 b 267 746 279 626 267 693 z m 168 547 b 40 296 54 471 40 408 b 326 -25 40 94 147 -25 b 654 296 544 -25 654 68 b 522 547 654 419 629 485 l 522 550 b 649 768 615 597 649 679 b 346 1042 649 954 529 1042 b 46 768 167 1042 46 953 b 168 550 46 668 78 599 z "},"9":{"ha":694,"x_min":0,"x_max":0,"o":"m 349 868 b 428 676 444 868 428 742 b 351 519 428 618 436 519 b 269 683 263 519 269 619 b 349 868 269 739 263 868 z m 53 244 b 369 -25 60 35 172 -25 b 658 400 631 -25 658 183 l 658 675 b 357 1042 658 883 590 1042 b 38 658 100 1042 38 893 b 268 346 38 501 79 346 b 426 397 338 346 371 356 l 426 328 b 350 149 426 268 439 149 b 289 176 319 149 300 160 b 274 244 278 193 275 218 z "}," ":{"ha":347,"x_min":0,"x_max":0,"o":""},"!":{"ha":463,"x_min":0,"x_max":0,"o":"m 169 335 l 294 335 l 354 779 l 354 1042 l 110 1042 l 110 779 z m 350 0 l 350 238 l 115 238 l 115 0 z "},"\"":{"ha":463,"x_min":0,"x_max":0,"o":"m 442 650 l 442 1026 l 276 1026 l 276 650 z m 188 650 l 188 1026 l 22 1026 l 22 650 z "},"#":{"ha":694,"x_min":0,"x_max":0,"o":"m 646 467 l 528 467 l 544 597 l 682 597 l 682 757 l 567 757 l 606 1042 l 481 1042 l 443 757 l 324 757 l 361 1042 l 240 1042 l 201 757 l 51 757 l 51 597 l 182 597 l 163 467 l 13 467 l 13 308 l 140 308 l 99 0 l 224 0 l 265 308 l 383 308 l 343 0 l 464 0 l 506 308 l 646 308 z m 422 597 l 406 467 l 286 467 l 303 597 z "},"$":{"ha":694,"x_min":0,"x_max":0,"o":"m 376 371 b 476 261 493 313 458 296 b 376 139 486 194 436 150 z m 19 299 b 279 -21 19 104 88 11 l 279 -175 l 401 -175 l 401 -22 b 672 268 575 -10 672 96 b 386 599 672 465 550 529 l 386 842 b 474 707 453 833 474 767 l 668 707 b 413 1000 672 869 574 985 l 413 1092 l 290 1092 l 290 1000 b 29 736 149 992 29 885 b 306 396 29 542 144 472 l 306 136 b 213 299 188 171 225 269 z m 315 633 b 225 747 263 649 225 692 b 315 844 225 811 264 829 z "},"%":{"ha":1157,"x_min":0,"x_max":0,"o":"m 256 504 b 478 764 449 504 478 618 b 256 1022 478 939 421 1022 b 33 764 89 1022 33 915 b 256 504 33 603 79 504 z m 256 631 b 201 765 189 631 201 703 b 256 896 201 808 190 901 b 310 765 324 896 310 808 b 256 631 310 722 318 631 z m 903 513 b 681 254 736 513 681 406 b 903 -6 681 93 726 -6 b 1125 254 1096 -6 1125 108 b 903 513 1125 417 1076 513 z m 903 386 b 957 257 971 386 957 300 b 903 121 957 214 965 121 b 849 257 836 121 849 194 b 903 386 849 300 838 392 z m 872 1042 l 758 1042 l 289 -25 l 406 -25 z "},"&":{"ha":926,"x_min":0,"x_max":0,"o":"m 515 208 b 411 163 485 186 449 164 b 282 297 338 163 282 224 b 353 460 282 371 304 407 z m 428 914 b 499 842 478 914 499 890 b 425 725 499 801 461 743 b 367 850 393 754 367 806 b 428 914 367 885 392 914 z m 647 0 l 896 0 l 753 225 b 846 554 804 326 843 439 l 667 554 b 639 407 658 507 650 458 l 636 407 b 524 583 601 467 561 525 b 700 840 625 636 700 722 b 444 1067 700 990 582 1067 b 174 849 318 1067 174 994 b 258 617 174 763 206 682 b 65 285 136 542 65 429 b 378 -25 65 94 192 -25 b 610 60 467 -25 543 3 z "},"’":{"ha":386,"x_min":0,"x_max":0,"o":"m 81 607 b 300 818 217 617 300 678 l 300 1042 l 81 1042 l 81 819 l 197 819 b 81 686 201 742 160 689 z "},"(":{"ha":386,"x_min":0,"x_max":0,"o":"m 190 1042 b 33 414 92 835 33 643 b 190 -260 33 124 83 -4 l 364 -260 b 244 382 281 -58 244 164 b 358 1042 244 608 275 831 z "},")":{"ha":386,"x_min":0,"x_max":0,"o":"m 196 -260 b 353 368 294 -53 353 139 b 196 1042 353 658 303 786 l 22 1042 b 142 400 106 840 142 618 b 28 -260 142 174 111 -49 z "},"*":{"ha":694,"x_min":0,"x_max":0,"o":"m 285 881 l 131 933 l 89 808 l 247 763 l 140 625 l 249 550 l 347 689 l 454 546 l 557 626 l 449 767 l 607 815 l 565 943 l 414 885 l 414 1042 l 285 1042 z "},"+":{"ha":694,"x_min":0,"x_max":0,"o":"m 268 426 l 36 426 l 36 267 l 268 267 l 268 0 l 428 0 l 428 267 l 660 267 l 660 426 l 428 426 l 428 683 l 268 683 z "},",":{"ha":463,"x_min":0,"x_max":0,"o":"m 114 -217 b 349 -1 250 -207 349 -146 l 349 238 l 114 238 l 114 0 l 240 0 b 204 -99 238 -40 226 -75 b 114 -137 183 -122 154 -136 z "},"-":{"ha":463,"x_min":0,"x_max":0,"o":"m 404 329 l 404 538 l 60 538 l 60 329 z "},".":{"ha":463,"x_min":0,"x_max":0,"o":"m 349 0 l 349 238 l 114 238 l 114 0 z "},"/":{"ha":386,"x_min":0,"x_max":0,"o":"m 110 -131 l 426 1042 l 274 1042 l -39 -131 z "},":":{"ha":386,"x_min":0,"x_max":0,"o":"m 311 533 l 311 771 l 76 771 l 76 533 z m 311 0 l 311 238 l 76 238 l 76 0 z "},";":{"ha":386,"x_min":0,"x_max":0,"o":"m 76 -217 b 311 -1 213 -207 311 -146 l 311 238 l 76 238 l 76 0 l 203 0 b 167 -99 200 -40 189 -75 b 76 -137 146 -122 117 -136 z m 311 533 l 311 771 l 76 771 l 76 533 z "},"<":{"ha":694,"x_min":0,"x_max":0,"o":"m 225 347 l 638 579 l 638 733 l 58 418 l 58 281 l 638 -32 l 638 122 z "},"=":{"ha":694,"x_min":0,"x_max":0,"o":"m 660 563 l 36 563 l 36 403 l 660 403 z m 660 292 l 36 292 l 36 132 l 660 132 z "},">":{"ha":694,"x_min":0,"x_max":0,"o":"m 58 122 l 58 -32 l 638 281 l 638 418 l 58 733 l 58 579 l 471 347 z "},"?":{"ha":694,"x_min":0,"x_max":0,"o":"m 250 738 b 333 879 250 803 251 879 b 411 788 389 879 411 838 b 257 529 411 700 303 586 b 222 333 221 471 221 400 l 432 333 b 474 474 438 394 438 422 b 564 586 501 513 533 549 b 656 803 618 653 656 715 b 338 1067 656 992 508 1067 b 29 738 144 1067 19 932 z m 443 0 l 442 238 l 207 238 l 207 0 z "},"@":{"ha":1153,"x_min":0,"x_max":0,"o":"m 699 514 b 526 344 692 436 631 329 b 428 496 468 353 422 404 b 585 672 433 585 499 665 b 699 514 672 679 706 597 z m 746 717 b 569 801 704 776 643 801 b 275 471 390 801 275 640 b 510 215 275 329 363 215 b 681 300 567 215 621 243 l 683 297 b 742 210 672 243 707 210 b 992 332 824 210 936 275 b 1103 628 1071 414 1103 514 b 942 950 1103 760 1039 868 b 603 1067 846 1032 729 1067 b 51 525 296 1067 51 835 b 611 -25 51 210 301 -25 b 1040 206 789 -25 938 64 l 907 206 b 622 79 828 133 732 79 b 158 525 363 79 158 256 b 599 965 158 779 342 965 b 994 588 833 965 1001 822 b 946 422 993 522 965 450 b 851 333 917 381 875 340 b 824 363 835 328 818 336 l 897 790 l 761 790 z "},"A":{"ha":772,"x_min":0,"x_max":0,"o":"m 258 0 l 288 203 l 479 203 l 514 0 l 761 0 l 535 1042 l 240 1042 l 13 0 z m 456 386 l 314 386 l 385 853 l 388 853 z "},"B":{"ha":772,"x_min":0,"x_max":0,"o":"m 306 444 b 479 322 410 440 479 443 b 306 188 479 182 428 190 z m 306 854 b 463 756 392 854 463 858 b 306 632 463 632 413 639 z m 406 0 b 724 301 604 0 724 90 b 589 550 724 431 700 486 l 589 553 b 707 772 674 599 707 681 b 378 1042 707 982 563 1042 l 61 1042 l 61 0 z "},"C":{"ha":772,"x_min":0,"x_max":0,"o":"m 715 678 l 715 765 b 382 1067 715 978 590 1067 b 54 735 158 1067 54 961 l 54 307 b 367 -25 54 94 142 -25 b 719 279 617 -25 719 100 l 719 407 l 475 407 l 475 313 b 385 163 475 249 468 163 b 297 256 321 163 297 197 l 299 771 b 393 879 299 839 317 881 b 471 744 439 879 471 833 l 471 678 z "},"D":{"ha":772,"x_min":0,"x_max":0,"o":"m 393 0 b 610 49 468 0 546 7 b 714 274 681 93 713 169 l 714 736 b 604 993 714 836 699 938 b 329 1042 525 1039 418 1042 l 64 1042 l 64 0 z m 308 854 b 469 722 428 851 468 844 l 469 382 b 308 188 474 243 472 176 z "},"E":{"ha":694,"x_min":0,"x_max":0,"o":"m 640 0 l 640 208 l 308 208 l 308 433 l 614 433 l 614 642 l 308 642 l 308 833 l 624 833 l 624 1042 l 64 1042 l 64 0 z "},"F":{"ha":694,"x_min":0,"x_max":0,"o":"m 313 0 l 313 440 l 617 440 l 617 649 l 313 649 l 313 833 l 643 833 l 643 1042 l 68 1042 l 68 0 z "},"G":{"ha":772,"x_min":0,"x_max":0,"o":"m 711 -1 l 711 565 l 379 565 l 379 378 l 467 378 l 467 296 b 381 163 467 229 464 163 b 290 256 317 163 290 197 l 290 771 b 385 879 290 839 308 881 b 461 744 450 878 461 833 l 461 688 l 706 688 l 706 765 b 374 1067 706 978 582 1067 b 46 735 150 1067 46 961 l 46 307 b 319 -25 46 118 113 -25 b 531 92 425 -25 481 3 l 533 92 l 544 -1 z "},"H":{"ha":772,"x_min":0,"x_max":0,"o":"m 301 0 l 301 433 l 471 433 l 471 0 l 715 0 l 715 1042 l 471 1042 l 471 642 l 301 642 l 301 1042 l 57 1042 l 57 0 z "},"I":{"ha":386,"x_min":0,"x_max":0,"o":"m 315 0 l 315 1042 l 71 1042 l 71 0 z "},"J":{"ha":617,"x_min":0,"x_max":0,"o":"m 10 347 l 10 288 b 21 147 10 242 8 194 b 268 -25 50 31 151 -25 b 517 93 374 -25 465 -3 b 549 317 553 163 549 243 l 549 1042 l 304 1042 l 303 200 b 256 163 304 171 292 164 b 206 215 222 161 206 176 l 206 347 z "},"K":{"ha":772,"x_min":0,"x_max":0,"o":"m 306 0 l 306 257 l 360 363 l 494 0 l 753 0 l 517 582 l 739 1042 l 489 1042 l 308 625 l 306 625 l 306 1042 l 61 1042 l 61 0 z "},"L":{"ha":617,"x_min":0,"x_max":0,"o":"m 594 0 l 594 208 l 296 208 l 296 1042 l 51 1042 l 51 0 z "},"M":{"ha":1081,"x_min":0,"x_max":0,"o":"m 300 0 l 278 817 l 281 817 l 449 0 l 631 0 l 803 817 l 806 817 l 781 0 l 1014 0 l 1014 1042 l 672 1042 l 542 426 l 539 426 l 413 1042 l 68 1042 l 68 0 z "},"N":{"ha":772,"x_min":0,"x_max":0,"o":"m 463 0 l 713 0 l 713 1042 l 481 1042 l 504 460 l 500 460 l 311 1042 l 60 1042 l 60 0 l 292 0 l 269 581 l 272 583 z "},"O":{"ha":772,"x_min":0,"x_max":0,"o":"m 474 311 b 389 163 474 251 468 163 b 300 311 310 163 300 251 l 300 739 b 388 879 300 803 310 879 b 474 739 468 879 474 803 z m 718 756 b 389 1067 718 956 603 1067 b 56 756 175 1067 56 956 l 56 332 b 389 -25 56 97 142 -25 b 718 332 636 -25 718 97 z "},"P":{"ha":772,"x_min":0,"x_max":0,"o":"m 318 854 l 344 854 b 440 846 383 854 417 854 b 486 725 482 826 486 765 b 456 619 486 689 481 647 b 318 593 417 589 364 594 z m 318 0 l 318 406 b 593 439 410 410 508 397 b 731 729 704 490 731 617 b 663 956 731 814 719 892 b 364 1042 594 1033 458 1042 l 74 1042 l 74 0 z "},"Q":{"ha":772,"x_min":0,"x_max":0,"o":"m 718 756 b 389 1067 718 956 603 1067 b 56 756 175 1067 56 956 l 56 332 b 389 -25 56 97 142 -25 b 439 -22 407 -25 424 -24 b 483 -17 454 -21 469 -19 l 621 -171 l 764 -49 l 650 74 b 718 332 700 135 718 221 z m 300 739 b 388 879 300 803 310 879 b 474 739 468 879 474 803 l 474 311 b 389 163 474 251 468 163 b 300 311 310 163 300 251 z "},"R":{"ha":772,"x_min":0,"x_max":0,"o":"m 303 854 b 474 728 422 857 474 851 b 386 599 474 664 457 599 l 303 599 z m 303 411 l 383 411 b 467 301 440 407 460 365 b 472 60 474 238 468 151 b 486 0 474 39 479 19 l 753 0 l 753 14 b 729 50 742 24 735 36 b 707 379 715 117 714 296 b 586 514 703 451 654 499 l 586 517 b 715 754 689 564 715 643 b 415 1042 715 961 615 1042 l 58 1042 l 58 0 l 303 0 z "},"S":{"ha":694,"x_min":0,"x_max":0,"o":"m 22 349 l 22 238 b 340 -25 22 100 117 -25 b 654 286 543 -25 654 86 b 564 535 654 413 621 482 b 336 682 507 588 428 624 b 263 810 288 715 256 747 b 347 879 268 856 297 883 b 428 729 428 874 425 790 l 653 729 b 343 1067 664 925 556 1067 b 36 771 154 1067 36 967 b 107 563 36 679 63 615 b 292 426 153 510 217 469 b 428 267 356 388 428 354 b 346 163 428 214 403 163 b 249 275 268 163 249 215 l 249 349 z "},"T":{"ha":694,"x_min":0,"x_max":0,"o":"m 31 833 l 222 833 l 222 0 l 467 0 l 467 833 l 664 833 l 664 1042 l 31 1042 z "},"U":{"ha":772,"x_min":0,"x_max":0,"o":"m 58 288 b 386 -25 58 74 179 -25 b 715 288 636 -25 715 111 l 715 1042 l 471 1042 l 471 263 b 388 163 471 218 451 163 b 303 256 318 163 303 206 l 303 1042 l 58 1042 z "},"V":{"ha":772,"x_min":0,"x_max":0,"o":"m 529 0 l 757 1042 l 513 1042 l 388 311 l 385 311 l 260 1042 l 15 1042 l 242 0 z "},"W":{"ha":1081,"x_min":0,"x_max":0,"o":"m 661 1042 l 425 1042 l 326 313 l 324 310 l 250 1042 l 14 1042 l 189 0 l 460 0 l 540 733 l 543 733 l 618 0 l 893 0 l 1067 1042 l 835 1042 l 758 311 l 756 311 z "},"X":{"ha":772,"x_min":0,"x_max":0,"o":"m 274 1042 l 31 1042 l 250 519 l 18 0 l 251 0 l 390 311 l 393 311 l 511 0 l 756 0 l 529 519 l 746 1042 l 501 1042 l 390 725 l 388 725 z "},"Y":{"ha":772,"x_min":0,"x_max":0,"o":"m 263 1042 l 15 1042 l 261 438 l 261 0 l 506 0 l 506 438 l 757 1042 l 513 1042 l 388 701 l 385 701 z "},"Z":{"ha":617,"x_min":0,"x_max":0,"o":"m 36 833 l 322 833 l 14 186 l 14 0 l 603 0 l 603 208 l 286 208 l 589 847 l 589 1042 l 36 1042 z "},"[":{"ha":386,"x_min":0,"x_max":0,"o":"m 58 -260 l 364 -260 l 364 -128 l 251 -128 l 251 910 l 364 910 l 364 1042 l 58 1042 z "},"\\":{"ha":347,"x_min":0,"x_max":0,"o":"m 407 -131 l 94 1042 l -58 1042 l 258 -131 z "},"]":{"ha":386,"x_min":0,"x_max":0,"o":"m 328 1042 l 22 1042 l 22 910 l 135 910 l 135 -128 l 22 -128 l 22 -260 l 328 -260 z "},"^":{"ha":694,"x_min":0,"x_max":0,"o":"m 163 453 l 346 840 l 532 453 l 674 518 l 429 1042 l 265 1042 l 21 518 z "},"_":{"ha":694,"x_min":0,"x_max":0,"o":"m 694 -174 l 694 -104 l 0 -104 l 0 -174 z "},"‘":{"ha":386,"x_min":0,"x_max":0,"o":"m 306 1067 b 86 856 169 1057 86 996 l 86 632 l 306 632 l 306 854 l 189 854 b 306 988 185 932 226 985 z "},"a":{"ha":694,"x_min":0,"x_max":0,"o":"m 418 256 b 338 138 417 206 403 138 b 256 221 285 138 256 172 b 307 321 256 274 279 301 b 418 378 335 342 374 354 z m 442 0 l 657 0 b 639 86 647 28 639 57 l 639 563 b 342 800 639 733 560 800 b 122 739 253 800 176 782 b 43 532 68 696 39 629 l 264 532 b 349 653 268 597 268 653 b 418 572 393 653 418 615 b 226 447 418 489 322 479 b 33 183 129 415 33 360 b 236 -25 33 60 111 -25 b 426 69 324 -25 371 8 z "},"b":{"ha":694,"x_min":0,"x_max":0,"o":"m 424 290 b 356 156 424 240 426 156 b 288 299 301 154 288 232 l 288 482 b 360 618 288 557 300 618 b 424 492 424 618 424 538 z m 288 1042 l 67 1042 l 67 0 l 272 0 l 272 89 l 275 89 b 451 -25 311 17 381 -22 b 644 264 613 -19 644 132 l 644 533 b 456 800 644 656 601 800 b 290 714 392 800 325 781 l 288 714 z "},"c":{"ha":694,"x_min":0,"x_max":0,"o":"m 633 489 b 342 800 646 703 560 797 b 68 533 171 800 68 733 l 68 217 b 342 -25 68 39 183 -25 b 415 -21 375 -25 394 -22 b 624 131 511 -11 594 33 b 642 315 636 172 642 269 l 428 315 b 360 135 428 257 442 135 b 289 225 303 135 289 176 l 289 546 b 356 640 289 596 299 640 b 415 592 389 640 406 624 b 424 503 421 563 419 532 l 425 489 z "},"d":{"ha":694,"x_min":0,"x_max":0,"o":"m 278 482 b 346 619 278 532 275 619 b 410 474 400 621 410 540 l 410 290 b 342 156 410 215 401 156 b 278 281 278 156 278 235 z m 631 0 l 631 1042 l 410 1042 l 410 707 l 407 707 b 246 800 361 775 304 800 b 57 533 100 800 57 656 l 57 264 b 250 -25 57 132 89 -19 b 422 90 315 -25 382 15 l 425 90 l 425 0 z "},"e":{"ha":694,"x_min":0,"x_max":0,"o":"m 274 499 l 274 550 b 351 654 274 604 289 654 b 426 575 408 654 426 603 l 426 499 z m 647 353 l 647 575 b 350 800 647 743 504 801 b 53 533 179 799 53 733 l 53 217 b 350 -25 53 39 192 -26 b 639 269 542 -22 650 69 l 419 269 b 342 135 415 204 424 131 b 274 217 293 138 274 174 l 274 353 z "},"f":{"ha":463,"x_min":0,"x_max":0,"o":"m 115 0 l 336 0 l 336 617 l 431 617 l 431 776 l 336 776 l 336 856 b 383 882 336 875 358 882 l 431 882 l 431 1042 l 333 1042 b 115 844 190 1042 118 993 l 114 776 l 26 776 l 26 617 l 115 617 z "},"g":{"ha":694,"x_min":0,"x_max":0,"o":"m 276 504 b 336 619 275 544 279 619 b 408 517 396 619 408 569 l 408 301 b 342 200 408 254 401 200 b 276 283 290 200 276 240 z m 50 -43 b 333 -262 56 -222 167 -262 b 629 -15 499 -262 629 -197 l 629 778 l 424 778 l 424 683 l 421 683 b 246 800 383 761 322 797 b 56 533 100 800 56 656 l 56 264 b 250 19 56 144 111 19 b 407 104 310 19 363 53 l 410 104 l 410 -53 b 343 -117 408 -103 389 -112 b 271 -43 279 -121 271 -97 z "},"h":{"ha":694,"x_min":0,"x_max":0,"o":"m 285 1042 l 64 1042 l 64 0 l 285 0 l 285 538 b 349 619 285 576 300 619 b 411 553 400 619 411 597 l 411 0 l 632 0 l 632 624 b 456 800 632 724 563 800 b 288 717 393 800 339 782 l 285 717 z "},"i":{"ha":386,"x_min":0,"x_max":0,"o":"m 304 0 l 304 778 l 83 778 l 83 0 z m 304 854 l 304 1042 l 83 1042 l 83 854 z "},"j":{"ha":386,"x_min":0,"x_max":0,"o":"m 19 -262 l 125 -262 b 310 -19 279 -257 310 -161 l 310 778 l 89 778 l 89 -32 b 47 -103 89 -62 83 -100 l 19 -103 z m 310 854 l 310 1042 l 89 1042 l 89 854 z "},"k":{"ha":694,"x_min":0,"x_max":0,"o":"m 276 0 l 276 250 l 314 300 l 443 0 l 675 0 l 453 465 l 672 778 l 431 778 l 279 518 l 276 518 l 276 1042 l 56 1042 l 56 0 z "},"l":{"ha":386,"x_min":0,"x_max":0,"o":"m 304 0 l 304 1042 l 83 1042 l 83 0 z "},"m":{"ha":1003,"x_min":0,"x_max":0,"o":"m 53 778 l 53 0 l 274 0 l 274 556 b 339 619 276 597 294 619 b 392 556 376 619 385 589 l 392 0 l 613 0 l 613 556 b 672 619 613 596 633 618 b 731 556 714 622 728 592 l 731 0 l 951 0 l 951 638 b 754 800 951 743 858 800 b 593 697 692 800 633 767 l 590 697 b 426 800 565 763 497 804 b 261 688 367 796 297 758 l 258 688 l 258 778 z "},"n":{"ha":694,"x_min":0,"x_max":0,"o":"m 68 778 l 68 0 l 289 0 l 289 556 b 349 619 289 596 310 618 b 407 556 390 622 404 592 l 407 0 l 628 0 l 628 638 b 431 800 628 743 535 800 b 276 681 361 800 297 740 l 274 681 l 274 778 z "},"o":{"ha":694,"x_min":0,"x_max":0,"o":"m 58 217 b 347 -25 58 39 189 -25 b 636 217 515 -25 625 40 l 636 533 b 347 800 636 708 542 800 b 58 533 176 800 58 733 z m 279 550 b 347 640 279 600 296 640 b 415 550 399 640 415 600 l 415 203 b 347 135 411 158 393 135 b 279 203 301 135 283 158 z "},"p":{"ha":694,"x_min":0,"x_max":0,"o":"m 415 290 b 347 156 415 240 418 156 b 279 299 293 154 279 232 l 279 482 b 351 619 279 557 292 619 b 415 492 415 619 415 538 z m 58 778 l 58 -262 l 279 -262 l 279 74 l 282 74 b 443 -25 333 -3 404 -26 b 636 264 604 -19 636 132 l 636 533 b 447 800 636 656 593 800 b 267 683 371 797 310 761 l 264 683 l 264 778 z "},"q":{"ha":694,"x_min":0,"x_max":0,"o":"m 406 290 b 333 156 406 215 393 156 b 269 281 269 156 269 235 l 269 482 b 338 619 269 532 267 619 b 406 474 392 621 406 540 z m 626 778 l 421 778 l 421 683 l 418 683 b 238 800 375 761 314 797 b 49 533 92 800 49 656 l 49 264 b 242 -25 49 132 81 -19 b 403 74 281 -26 351 -3 l 406 74 l 406 -261 l 626 -261 z "},"r":{"ha":463,"x_min":0,"x_max":0,"o":"m 58 778 l 58 0 l 279 0 l 279 479 b 371 556 283 543 308 556 b 438 550 393 556 415 554 l 438 800 b 267 660 346 800 292 743 l 264 660 l 264 778 z "},"s":{"ha":617,"x_min":0,"x_max":0,"o":"m 589 547 b 307 800 597 719 468 800 b 19 560 153 800 19 728 b 75 414 19 503 38 457 b 357 254 144 335 268 301 b 386 194 375 240 386 218 b 307 121 386 144 354 121 b 242 158 274 121 253 136 b 228 238 229 182 226 211 l 17 238 b 306 -25 8 50 131 -25 b 600 222 468 -25 600 49 b 303 510 600 407 446 444 b 235 589 269 526 235 547 b 308 654 235 635 265 654 b 369 621 344 654 361 640 b 382 547 379 600 379 574 z "},"t":{"ha":463,"x_min":0,"x_max":0,"o":"m 104 618 l 104 168 b 289 -11 104 50 169 -11 b 431 1 338 -11 383 -6 l 431 157 b 374 154 407 157 399 158 b 325 208 344 154 325 164 l 325 618 l 431 618 l 431 778 l 325 778 l 325 1000 l 104 1000 l 104 778 l 17 778 l 17 618 z "},"u":{"ha":694,"x_min":0,"x_max":0,"o":"m 624 0 l 624 778 l 403 778 l 403 221 b 339 156 403 181 378 157 b 285 221 297 153 288 185 l 285 778 l 64 778 l 64 139 b 261 -25 64 33 133 -25 b 415 96 331 -25 394 36 l 418 96 l 418 0 z "},"v":{"ha":617,"x_min":0,"x_max":0,"o":"m 235 778 l 13 778 l 182 0 l 435 0 l 606 778 l 390 778 l 311 275 l 308 275 z "},"w":{"ha":926,"x_min":0,"x_max":0,"o":"m 561 778 l 372 778 l 292 275 l 289 275 l 226 778 l 13 778 l 161 0 l 397 0 l 464 404 l 467 404 l 529 0 l 765 0 l 915 778 l 704 778 l 643 275 l 640 275 z "},"x":{"ha":617,"x_min":0,"x_max":0,"o":"m 378 778 l 308 560 l 306 560 l 240 778 l 21 778 l 194 389 l 13 0 l 239 0 l 310 224 l 313 224 l 383 0 l 604 0 l 425 389 l 599 778 z "},"y":{"ha":617,"x_min":0,"x_max":0,"o":"m 231 778 l 8 778 l 163 74 b 188 -58 171 38 188 -22 b 121 -97 188 -89 144 -101 b 78 -92 107 -94 92 -93 l 78 -256 b 165 -262 100 -256 126 -262 b 461 113 407 -262 406 -99 l 601 778 l 385 778 l 308 275 l 306 275 z "},"z":{"ha":540,"x_min":0,"x_max":0,"o":"m 35 604 l 272 604 l 19 154 l 19 0 l 521 0 l 521 174 l 268 174 l 521 617 l 521 778 l 35 778 z "},"{":{"ha":381,"x_min":0,"x_max":0,"o":"m 92 75 b 132 -83 92 19 93 -44 b 393 -131 181 -136 263 -133 l 393 -128 b 289 24 307 -106 289 -46 l 289 263 b 175 450 289 351 274 436 l 175 453 b 289 628 269 474 289 531 l 289 883 b 393 1039 289 961 307 1019 l 393 1042 b 146 1007 260 1042 203 1047 b 92 858 96 972 92 917 l 92 603 b -12 451 92 532 68 463 l -12 449 b 92 300 68 428 92 381 z "},"|":{"ha":347,"x_min":0,"x_max":0,"o":"m 75 1042 l 75 -347 l 272 -347 l 272 1042 z "},"}":{"ha":381,"x_min":0,"x_max":0,"o":"m 289 858 b 235 1008 289 917 285 972 b -12 1042 178 1047 121 1042 l -12 1039 b 92 885 65 1024 92 967 l 92 628 b 206 453 92 532 111 474 l 206 450 b 92 263 104 421 92 356 l 92 25 b -12 -128 92 -54 71 -108 l -12 -131 b 249 -83 118 -133 200 -135 b 289 75 288 -44 289 19 l 289 300 b 393 450 289 381 301 439 l 393 453 b 289 604 313 464 289 532 z "},"~":{"ha":694,"x_min":0,"x_max":0,"o":"m 581 499 b 481 396 556 457 532 396 b 221 488 422 396 311 488 b 36 315 131 488 75 394 l 115 213 b 222 326 140 260 165 326 b 481 235 267 326 397 235 b 660 397 572 235 617 322 z "},"¡":{"ha":463,"x_min":0,"x_max":0,"o":"m 169 443 l 110 -1 l 110 -262 l 354 -262 l 354 -1 l 294 443 z m 349 778 l 114 778 l 114 540 l 349 540 z "},"¢":{"ha":694,"x_min":0,"x_max":0,"o":"m 397 951 l 361 800 b 200 772 306 800 253 796 b 64 472 68 710 64 601 l 64 290 b 196 0 64 169 71 58 l 157 -204 l 276 -204 l 314 -22 b 367 -25 332 -25 349 -25 b 642 315 600 -25 642 111 l 443 315 b 438 206 442 279 440 242 b 354 121 433 146 415 121 b 335 124 347 121 340 122 l 415 632 b 422 622 418 631 421 626 b 438 489 438 581 438 533 l 633 489 b 481 781 643 650 597 743 l 517 951 z m 276 536 b 347 656 276 642 319 656 b 369 653 358 656 367 653 l 289 156 b 276 242 275 163 276 232 z "},"£":{"ha":694,"x_min":0,"x_max":0,"o":"m 132 464 b 144 375 142 435 144 406 b 0 126 144 275 81 182 l 78 -22 b 232 22 125 7 176 22 b 479 -25 317 22 394 -25 b 657 24 547 -25 597 -4 l 611 197 b 490 150 576 167 536 150 b 321 178 450 150 399 178 b 169 136 267 178 217 164 l 169 139 b 333 399 250 200 333 292 b 326 464 333 419 328 443 l 501 464 l 501 550 l 303 550 b 253 769 281 621 253 694 b 336 893 253 826 268 893 b 428 724 428 893 428 794 l 640 724 l 639 811 b 340 1067 622 981 504 1067 b 32 793 179 1067 29 967 b 96 550 33 706 49 625 l 7 550 l 7 464 z "},"⁄":{"ha":232,"x_min":0,"x_max":0,"o":"m -112 0 l 453 1042 l 336 1042 l -233 0 z "},"¥":{"ha":694,"x_min":0,"x_max":0,"o":"m 718 1042 l 454 1042 l 349 701 l 346 701 l 243 1042 l -24 1042 l 219 436 l 219 393 l 96 393 l 96 307 l 219 307 l 219 239 l 96 239 l 96 153 l 219 153 l 219 0 l 469 0 l 469 153 l 596 153 l 596 239 l 469 239 l 469 307 l 596 307 l 596 393 l 469 393 l 469 438 z "},"ƒ":{"ha":694,"x_min":0,"x_max":0,"o":"m 493 682 b 560 872 506 733 501 850 b 640 864 586 885 615 874 l 678 1040 b 568 1060 646 1047 607 1060 b 272 682 432 1060 314 1022 l 100 682 l 100 528 l 243 528 b 122 -71 147 -81 143 -50 b 35 -57 92 -89 60 -81 l 6 -239 b 126 -268 44 -261 86 -268 b 350 -94 250 -268 307 -206 b 471 528 397 47 406 106 l 636 528 l 636 682 z "},"§":{"ha":694,"x_min":0,"x_max":0,"o":"m 263 551 b 435 414 321 507 383 465 b 467 351 449 396 467 388 b 431 276 467 317 453 301 b 303 376 389 311 344 342 b 222 486 268 406 222 436 b 263 551 222 511 243 538 z m 58 10 b 315 -256 56 -147 156 -256 b 619 14 493 -256 619 -175 b 546 176 619 75 592 136 b 658 382 558 189 658 226 b 529 608 658 479 601 549 b 313 779 457 668 371 719 b 285 842 296 796 285 818 b 351 907 285 883 308 907 b 422 824 406 907 425 875 l 621 824 b 354 1067 629 985 503 1067 b 85 819 174 1067 85 938 b 147 671 85 763 106 708 b 38 467 83 626 38 544 b 222 172 38 319 129 238 b 418 -28 315 107 411 57 b 332 -96 421 -69 388 -96 b 258 10 272 -96 256 -39 z "},"¤":{"ha":694,"x_min":0,"x_max":0,"o":"m 0 190 l 110 81 l 171 142 b 357 88 226 106 290 88 b 536 142 421 88 481 108 l 597 81 l 707 190 l 646 251 b 696 431 679 303 696 368 b 646 611 696 497 678 556 l 707 671 l 597 782 l 536 721 b 350 774 481 756 415 774 b 171 721 289 774 224 753 l 110 782 l 0 671 l 61 611 b 10 429 26 554 10 497 b 61 251 10 358 28 311 z m 353 260 b 182 431 256 260 182 340 b 353 601 182 521 256 601 b 524 431 450 601 524 521 b 353 260 524 340 450 260 z "},"'":{"ha":347,"x_min":0,"x_max":0,"o":"m 257 650 l 257 1026 l 92 1026 l 92 650 z "},"“":{"ha":694,"x_min":0,"x_max":0,"o":"m 293 1067 b 74 856 157 1057 74 996 l 74 632 l 293 632 l 293 854 l 176 854 b 293 988 172 932 214 985 z m 626 1067 b 407 856 490 1057 407 996 l 407 632 l 626 632 l 626 854 l 510 854 b 626 988 506 932 547 985 z "},"«":{"ha":694,"x_min":0,"x_max":0,"o":"m 635 171 l 635 351 l 493 432 l 635 519 l 635 701 l 385 535 l 385 332 z m 301 171 l 301 351 l 161 432 l 301 519 l 301 701 l 51 535 l 51 332 z "},"‹":{"ha":386,"x_min":0,"x_max":0,"o":"m 325 171 l 325 351 l 183 432 l 325 519 l 325 701 l 74 535 l 74 332 z "},"›":{"ha":386,"x_min":0,"x_max":0,"o":"m 61 171 l 313 332 l 313 535 l 61 701 l 61 519 l 203 432 l 61 351 z "},"ﬁ":{"ha":772,"x_min":0,"x_max":0,"o":"m 699 0 l 699 778 l 478 778 l 478 0 z m 699 854 l 699 1042 l 478 1042 l 478 854 z m 333 1042 b 114 844 190 1042 114 993 l 114 778 l 26 778 l 26 618 l 115 618 l 115 0 l 336 0 l 336 618 l 431 618 l 431 778 l 336 778 l 336 856 b 383 882 336 875 358 882 l 431 882 l 431 1042 z "},"ﬂ":{"ha":772,"x_min":0,"x_max":0,"o":"m 699 0 l 699 1042 l 478 1042 l 478 0 z m 333 1042 b 114 844 190 1042 114 993 l 114 778 l 26 778 l 26 618 l 115 618 l 115 0 l 336 0 l 336 618 l 431 618 l 431 778 l 336 778 l 336 856 b 383 882 336 875 358 882 l 431 882 l 431 1042 z "},"–":{"ha":694,"x_min":0,"x_max":0,"o":"m 694 351 l 694 511 l 0 511 l 0 351 z "},"†":{"ha":694,"x_min":0,"x_max":0,"o":"m 236 536 l 236 -240 l 457 -240 l 457 536 l 656 536 l 656 724 l 457 724 l 457 1042 l 236 1042 l 236 724 l 40 724 l 40 536 z "},"‡":{"ha":694,"x_min":0,"x_max":0,"o":"m 238 -237 l 458 -237 l 458 53 l 658 53 l 658 240 l 458 240 l 458 549 l 656 549 l 656 736 l 458 736 l 458 1042 l 238 1042 l 238 736 l 38 736 l 38 549 l 238 549 l 238 240 l 38 240 l 38 53 l 238 53 z "},"·":{"ha":463,"x_min":0,"x_max":0,"o":"m 349 228 l 349 465 l 114 465 l 114 228 z "},"¶":{"ha":764,"x_min":0,"x_max":0,"o":"m 529 -161 l 717 -161 l 717 882 l 768 882 l 768 1042 l 315 1042 b 15 794 128 1042 15 982 b 250 557 15 646 110 557 l 250 -161 l 438 -161 l 438 882 l 529 882 z "},"•":{"ha":583,"x_min":0,"x_max":0,"o":"m 553 521 b 290 781 553 664 435 781 b 31 521 146 781 31 664 b 290 258 31 376 146 258 b 553 521 435 258 553 376 z "},"‚":{"ha":386,"x_min":0,"x_max":0,"o":"m 83 -211 b 303 0 219 -201 303 -140 l 303 224 l 83 224 l 83 1 l 200 1 b 83 -132 204 -76 163 -129 z "},"„":{"ha":694,"x_min":0,"x_max":0,"o":"m 406 -211 b 625 0 542 -201 625 -140 l 625 224 l 406 224 l 406 1 l 522 1 b 406 -132 526 -76 485 -129 z m 71 -211 b 290 0 207 -201 290 -140 l 290 224 l 71 224 l 71 1 l 188 1 b 71 -132 192 -76 150 -129 z "},"”":{"ha":694,"x_min":0,"x_max":0,"o":"m 401 607 b 621 818 538 617 621 678 l 621 1042 l 401 1042 l 401 819 l 518 819 b 401 686 522 742 481 689 z m 68 607 b 288 818 204 617 288 678 l 288 1042 l 68 1042 l 68 819 l 185 819 b 68 686 189 742 147 689 z "},"»":{"ha":694,"x_min":0,"x_max":0,"o":"m 643 332 l 643 535 l 393 701 l 393 519 l 533 432 l 393 351 l 393 171 z m 310 332 l 310 535 l 60 701 l 60 519 l 201 432 l 60 351 l 60 171 z "},"…":{"ha":1389,"x_min":0,"x_max":0,"o":"m 349 0 l 349 238 l 114 238 l 114 0 z m 811 0 l 811 238 l 576 238 l 576 0 z m 1275 0 l 1275 238 l 1040 238 l 1040 0 z "},"‰":{"ha":1543,"x_min":0,"x_max":0,"o":"m 219 1044 b -1 786 54 1044 -1 938 b 221 526 -1 625 44 526 b 443 786 414 526 443 640 b 219 1044 443 961 386 1044 z m 219 918 b 275 789 289 918 275 832 b 221 653 275 746 283 653 b 167 789 154 653 167 726 b 219 918 167 832 156 924 z m 804 513 b 583 254 639 513 583 406 b 806 -6 583 93 629 -6 b 1028 254 999 -6 1028 108 b 804 513 1028 429 971 513 z m 804 386 b 860 257 874 386 860 300 b 806 121 860 214 868 121 b 751 257 739 121 751 194 b 804 386 751 300 740 392 z m 1322 513 b 1101 254 1157 513 1101 406 b 1324 -6 1101 93 1147 -6 b 1546 254 1517 -6 1546 108 b 1322 513 1546 429 1489 513 z m 1322 386 b 1378 257 1392 386 1378 300 b 1324 121 1378 214 1386 121 b 1269 257 1257 121 1269 194 b 1322 386 1269 300 1258 392 z m 804 1042 l 689 1042 l 219 -25 l 333 -25 z "},"¿":{"ha":694,"x_min":0,"x_max":0,"o":"m 444 67 b 361 -75 444 1 443 -75 b 283 17 306 -75 283 -33 b 438 275 283 104 392 218 b 472 471 474 333 474 404 l 263 471 b 221 331 257 410 257 382 b 131 218 193 292 161 256 b 39 1 76 151 39 89 b 357 -262 39 -187 186 -262 b 665 67 550 -262 675 -128 z m 251 800 l 251 563 l 486 563 l 486 800 z "},"`":{"ha":463,"x_min":0,"x_max":0,"o":"m -53 1086 l 185 881 l 375 881 l 236 1086 z "},"´":{"ha":463,"x_min":0,"x_max":0,"o":"m 226 1086 l 88 881 l 278 881 l 515 1086 z "},"ˆ":{"ha":463,"x_min":0,"x_max":0,"o":"m -50 881 l 154 881 l 232 985 l 308 881 l 514 881 l 346 1086 l 117 1086 z "},"˜":{"ha":463,"x_min":0,"x_max":0,"o":"m 329 889 b 503 1074 439 889 492 975 l 392 1074 b 333 1022 390 1047 361 1022 b 246 1050 308 1022 279 1036 b 131 1076 213 1063 175 1076 b -40 881 17 1076 -22 974 l 69 881 b 131 940 75 911 97 940 b 214 915 153 940 182 928 b 329 889 247 901 286 889 z "},"¯":{"ha":463,"x_min":0,"x_max":0,"o":"m 493 921 l 493 1046 l -29 1046 l -29 921 z "},"˘":{"ha":463,"x_min":0,"x_max":0,"o":"m -19 1093 b 231 881 -10 939 85 881 b 483 1093 361 881 481 950 l 376 1093 b 238 1007 356 1019 307 1007 b 90 1093 176 1007 99 1017 z "},"˙":{"ha":463,"x_min":0,"x_max":0,"o":"m 121 1069 l 121 889 l 342 889 l 342 1069 z "},"¨":{"ha":463,"x_min":0,"x_max":0,"o":"m -28 1069 l -28 889 l 192 889 l 192 1069 z m 272 889 l 492 889 l 492 1069 l 272 1069 z "},"˚":{"ha":463,"x_min":0,"x_max":0,"o":"m 232 882 b 388 1039 318 882 388 954 b 232 1194 388 1124 317 1194 b 75 1039 147 1194 75 1125 b 232 882 75 953 146 882 z m 232 1111 b 304 1039 269 1111 304 1076 b 232 967 304 1001 271 967 b 160 1039 193 967 160 1000 b 232 1111 160 1078 194 1111 z "},"¸":{"ha":463,"x_min":0,"x_max":0,"o":"m 53 -283 b 236 -322 117 -306 167 -322 b 411 -189 314 -322 411 -278 b 281 -82 411 -117 344 -85 b 229 -89 261 -82 242 -83 l 226 -86 l 282 0 l 201 0 l 124 -128 l 160 -161 b 218 -147 178 -151 199 -146 b 274 -196 243 -149 272 -164 b 201 -247 275 -231 236 -247 b 82 -219 160 -247 122 -231 z "},"˝":{"ha":463,"x_min":0,"x_max":0,"o":"m -119 881 l 69 881 l 310 1086 l 18 1086 z m 294 881 l 483 881 l 724 1086 l 432 1086 z "},"˛":{"ha":463,"x_min":0,"x_max":0,"o":"m 386 -144 b 319 -161 363 -153 344 -161 b 254 -93 285 -161 254 -128 b 332 -3 254 -56 289 -25 l 332 0 l 217 0 b 101 -147 167 -35 101 -81 b 263 -285 101 -242 178 -285 b 386 -264 306 -285 346 -278 z "},"ˇ":{"ha":463,"x_min":0,"x_max":0,"o":"m 232 982 l 154 1086 l -50 1086 l 117 881 l 346 881 l 514 1086 l 308 1086 z "},"—":{"ha":1389,"x_min":0,"x_max":0,"o":"m 1389 351 l 1389 511 l 0 511 l 0 351 z "},"Æ":{"ha":1081,"x_min":0,"x_max":0,"o":"m 486 0 l 1035 0 l 1035 208 l 717 208 l 717 431 l 1013 431 l 1013 639 l 717 639 l 717 833 l 1025 833 l 1025 1042 l 344 1042 l -32 0 l 224 0 l 289 225 l 486 225 z m 482 833 l 482 433 l 340 433 l 460 833 z "},"ª":{"ha":417,"x_min":0,"x_max":0,"o":"m 260 740 b 208 668 260 710 250 668 b 163 719 176 668 163 690 b 260 814 163 782 203 785 z m 404 586 b 394 639 399 603 394 621 l 394 924 b 210 1067 394 1040 322 1067 b 74 1031 156 1067 107 1056 b 25 906 40 1004 22 964 l 163 906 b 169 949 164 919 163 936 b 215 971 179 969 194 971 b 260 931 244 971 260 956 b 253 901 260 918 257 911 b 151 858 232 882 193 871 b 51 803 111 844 69 831 b 14 697 21 767 14 742 b 144 572 14 622 67 572 b 264 628 199 572 229 592 l 265 628 l 272 586 z "},"Ł":{"ha":617,"x_min":0,"x_max":0,"o":"m 296 1042 l 51 1042 l 51 583 l -31 525 l -31 342 l 51 400 l 51 0 l 594 0 l 594 208 l 296 208 l 296 549 l 381 608 l 381 792 l 296 732 z "},"Ø":{"ha":772,"x_min":0,"x_max":0,"o":"m 300 739 b 388 879 300 803 310 879 b 474 739 468 879 474 803 l 474 724 l 303 408 l 300 408 z m 474 311 b 389 163 474 251 468 163 b 303 264 329 163 310 213 l 471 567 l 474 567 z m 606 1007 b 389 1067 551 1047 479 1067 b 56 756 175 1067 56 956 l 56 332 b 100 108 56 239 69 164 l 7 -51 l 121 -118 l 192 17 b 389 -25 242 -11 306 -25 b 718 332 636 -25 718 97 l 718 756 b 696 890 718 807 711 853 l 803 1074 l 681 1138 z "},"Œ":{"ha":1081,"x_min":0,"x_max":0,"o":"m 472 310 b 375 164 472 232 469 164 b 290 313 285 164 290 242 l 290 714 b 400 875 290 786 294 886 b 472 739 474 867 472 794 z m 488 -1 l 1032 -1 l 1032 207 l 707 207 l 707 432 l 1013 432 l 1013 640 l 707 640 l 707 833 l 1022 833 l 1022 1042 l 492 1042 l 492 956 l 489 956 b 290 1067 442 1032 365 1067 b 46 685 79 1067 46 850 l 46 360 b 296 -25 46 183 75 -25 b 485 89 379 -25 447 15 l 488 89 z "},"º":{"ha":417,"x_min":0,"x_max":0,"o":"m 21 717 b 208 572 21 610 106 572 b 396 717 318 572 389 611 l 396 907 b 208 1067 396 1011 335 1067 b 21 907 97 1067 21 1026 z m 164 917 b 208 971 164 947 175 971 b 253 917 242 971 253 947 l 253 708 b 208 668 250 682 238 668 b 164 708 179 668 167 682 z "},"æ":{"ha":1003,"x_min":0,"x_max":0,"o":"m 411 315 b 325 135 411 253 415 135 b 251 218 267 135 251 169 b 300 324 251 276 271 304 b 411 376 329 342 369 353 z m 629 488 l 629 547 b 710 654 628 601 639 654 b 778 569 761 654 774 615 l 778 488 z m 999 342 l 999 521 b 706 800 999 710 888 800 b 526 739 636 800 579 782 b 336 800 476 781 403 800 b 29 535 147 800 17 732 l 250 535 b 336 654 247 594 261 654 b 414 574 385 654 414 622 b 353 492 414 532 388 508 b 246 458 318 476 276 468 b 29 196 97 411 29 358 b 250 -25 29 57 117 -25 b 499 58 336 -25 438 -10 b 694 -25 531 -3 629 -25 b 990 257 892 -25 1001 60 l 769 257 b 703 128 767 210 776 128 b 632 228 642 128 635 179 l 632 342 z "},"ı":{"ha":386,"x_min":0,"x_max":0,"o":"m 304 0 l 304 778 l 83 778 l 83 0 z "},"ł":{"ha":386,"x_min":0,"x_max":0,"o":"m 81 569 l -10 518 l -10 369 l 81 421 l 81 0 l 301 0 l 301 543 l 392 594 l 392 743 l 301 692 l 301 1042 l 81 1042 z "},"ø":{"ha":694,"x_min":0,"x_max":0,"o":"m 282 346 l 279 346 l 279 550 b 347 640 279 600 296 640 b 415 542 406 640 415 590 z m 413 458 l 415 458 l 415 203 b 347 135 411 158 393 135 b 279 203 301 135 283 158 l 279 257 z m 526 760 b 347 800 481 788 421 800 b 58 533 176 800 58 733 l 58 217 b 81 104 58 174 67 138 l -15 -37 l 81 -103 l 157 21 b 347 -25 206 -11 274 -25 b 636 217 515 -25 625 40 l 636 533 b 606 676 636 590 626 639 l 699 815 l 599 879 z "},"œ":{"ha":1003,"x_min":0,"x_max":0,"o":"m 632 488 b 639 597 633 525 631 563 b 715 654 644 635 676 658 b 774 543 768 650 774 596 l 774 488 z m 994 565 b 724 800 989 717 876 800 b 526 718 639 800 586 779 b 318 800 475 775 396 800 b 49 508 114 800 49 688 l 49 268 b 324 -25 49 86 110 -25 b 524 54 397 -25 474 -1 b 703 -25 567 3 633 -25 b 992 268 907 -25 994 75 l 776 268 b 713 135 775 229 778 135 b 632 275 622 135 632 214 l 632 342 l 994 342 z m 411 204 b 339 135 407 160 386 135 b 269 204 293 135 269 160 l 269 568 b 339 640 269 610 293 640 b 411 568 386 640 406 610 z "},"ß":{"ha":694,"x_min":0,"x_max":0,"o":"m 338 510 b 419 419 403 514 417 479 l 419 256 b 338 157 419 175 407 144 l 338 -3 b 411 -25 353 -11 383 -26 b 640 243 574 -19 636 93 l 640 400 b 522 603 640 454 608 578 l 522 606 b 622 792 601 650 617 707 b 349 1067 632 960 515 1067 b 61 818 176 1067 61 985 l 61 0 l 282 0 l 282 839 b 339 907 285 876 299 907 b 401 788 407 907 401 840 b 338 669 401 736 408 665 z "},"¹":{"ha":417,"x_min":0,"x_max":0,"o":"m 206 431 l 349 431 l 349 1042 l 247 1042 b 68 949 231 968 140 947 l 68 853 l 206 853 z "},"¬":{"ha":694,"x_min":0,"x_max":0,"o":"m 500 160 l 660 160 l 660 563 l 36 563 l 36 403 l 500 403 z "},"µ":{"ha":694,"x_min":0,"x_max":0,"o":"m 624 0 l 624 778 l 403 778 l 403 221 b 339 156 403 181 378 157 b 285 221 297 153 288 185 l 285 778 l 64 778 l 64 -262 l 285 -262 l 285 -11 b 415 96 344 -11 397 43 l 418 96 l 418 0 z "},"™":{"ha":1194,"x_min":0,"x_max":0,"o":"m 1192 1042 l 988 1042 l 863 696 l 860 696 l 735 1042 l 531 1042 l 531 481 l 660 481 l 660 919 l 663 919 l 818 481 l 904 481 l 1060 919 l 1063 919 l 1063 481 l 1192 481 z m 469 1042 l 4 1042 l 4 919 l 163 919 l 163 481 l 304 481 l 304 919 l 469 919 z "},"Ð":{"ha":772,"x_min":0,"x_max":0,"o":"m 64 0 l 393 0 b 610 49 468 0 544 8 b 714 292 672 88 714 172 l 714 736 b 604 993 714 836 699 938 b 313 1042 525 1039 422 1042 l 64 1042 l 64 642 l 3 642 l 3 433 l 64 433 z m 308 854 b 469 722 428 854 469 840 l 469 347 b 339 188 469 221 447 188 l 308 188 l 308 433 l 411 433 l 411 642 l 308 642 z "},"½":{"ha":1042,"x_min":0,"x_max":0,"o":"m 271 0 l 836 1042 l 719 1042 l 150 0 z m 151 431 l 294 431 l 294 1042 l 193 1042 b 14 949 176 968 86 947 l 14 853 l 151 853 z m 767 429 b 819 521 767 461 771 518 b 876 460 861 524 876 490 b 832 353 876 414 865 386 l 764 286 b 622 21 692 214 622 124 l 622 0 l 1028 0 l 1028 113 l 794 113 b 883 222 801 147 858 200 l 942 274 b 1026 453 1000 331 1026 375 b 831 625 1026 569 953 625 b 624 432 694 625 624 556 l 624 399 l 767 399 z "},"±":{"ha":694,"x_min":0,"x_max":0,"o":"m 268 544 l 36 544 l 36 385 l 268 385 l 268 211 l 428 211 l 428 385 l 660 385 l 660 544 l 428 544 l 428 708 l 268 708 z m 36 -17 l 660 -17 l 660 143 l 36 143 z "},"Þ":{"ha":772,"x_min":0,"x_max":0,"o":"m 318 722 l 361 722 b 486 592 450 722 486 711 b 361 461 486 472 450 461 l 318 461 z m 74 0 l 318 0 l 318 274 l 364 274 b 731 592 600 274 731 344 b 364 910 731 847 604 910 l 318 910 l 318 1042 l 74 1042 z "},"¼":{"ha":1042,"x_min":0,"x_max":0,"o":"m 707 224 l 817 426 l 819 426 l 819 224 z m 301 0 l 867 1042 l 750 1042 l 181 0 z m 594 119 l 819 119 l 819 0 l 963 0 l 963 119 l 1022 119 l 1022 224 l 963 224 l 963 611 l 806 611 l 594 236 z m 157 431 l 300 431 l 300 1042 l 199 1042 b 19 949 182 968 92 947 l 19 853 l 157 853 z "},"÷":{"ha":694,"x_min":0,"x_max":0,"o":"m 36 267 l 660 267 l 660 426 l 36 426 z m 238 683 l 238 524 l 458 524 l 458 683 z m 238 169 l 238 10 l 458 10 l 458 169 z "},"¦":{"ha":347,"x_min":0,"x_max":0,"o":"m 75 -243 l 272 -243 l 272 243 l 75 243 z m 75 938 l 75 451 l 272 451 l 272 938 z "},"°":{"ha":556,"x_min":0,"x_max":0,"o":"m 486 833 b 278 1042 486 947 392 1042 b 69 833 163 1042 68 947 b 278 625 69 718 163 625 b 486 833 392 625 486 718 z m 339 833 b 278 772 339 800 311 772 b 217 833 244 772 217 800 b 278 894 217 867 244 894 b 339 833 311 894 339 867 z "},"þ":{"ha":694,"x_min":0,"x_max":0,"o":"m 415 290 b 347 156 415 238 415 156 b 279 299 293 156 279 232 l 279 482 b 351 619 279 557 292 619 b 415 492 415 619 415 538 z m 58 -262 l 279 -262 l 279 74 l 282 74 b 443 -25 333 -3 404 -25 b 636 264 604 -25 636 132 l 636 533 b 447 800 636 656 593 800 b 282 700 371 800 310 761 l 279 700 l 279 1042 l 58 1042 z "},"¾":{"ha":1042,"x_min":0,"x_max":0,"o":"m 717 224 l 826 426 l 829 426 l 829 224 z m 343 0 l 908 1042 l 792 1042 l 222 0 z m 604 119 l 829 119 l 829 0 l 972 0 l 972 119 l 1032 119 l 1032 224 l 972 224 l 972 611 l 815 611 l 604 236 z m 126 685 b 222 674 157 682 194 689 b 257 586 251 657 257 614 b 201 506 257 550 250 506 b 150 546 169 506 156 524 b 144 618 144 569 146 597 l 1 618 l 1 575 b 199 401 1 464 75 401 b 407 586 329 401 407 460 b 300 739 407 653 383 721 l 300 742 b 392 881 365 769 392 815 b 199 1042 392 994 314 1042 b 1 890 104 1042 1 985 l 1 844 l 146 844 b 151 903 147 861 146 885 b 194 936 157 922 168 936 b 247 872 238 936 247 907 b 219 801 247 850 239 815 b 126 785 193 785 157 786 z "},"²":{"ha":417,"x_min":0,"x_max":0,"o":"m 150 846 b 203 938 150 878 154 935 b 260 876 244 940 260 907 b 215 769 260 831 249 803 l 147 703 b 6 438 75 631 6 540 l 6 417 l 411 417 l 411 529 l 178 529 b 267 639 185 564 242 617 l 325 690 b 410 869 383 747 410 792 b 214 1042 410 986 336 1042 b 7 849 78 1042 7 972 l 7 815 l 150 815 z "},"®":{"ha":1153,"x_min":0,"x_max":0,"o":"m 576 -25 b 1124 522 907 -25 1124 219 b 576 1067 1124 806 935 1067 b 29 522 190 1067 29 775 b 576 -25 29 261 193 -25 z m 574 933 b 988 528 818 933 988 772 b 574 108 988 281 818 108 b 165 522 328 108 165 275 b 574 933 165 767 328 933 z m 453 460 l 554 460 l 685 224 l 833 224 l 690 474 b 851 632 794 481 851 525 b 654 814 851 765 778 810 l 324 814 l 324 224 l 453 224 z m 453 561 l 453 714 l 596 714 b 724 647 653 714 724 711 b 625 561 724 572 690 560 z "},"−":{"ha":694,"x_min":0,"x_max":0,"o":"m 36 267 l 660 267 l 660 426 l 36 426 z "},"ð":{"ha":694,"x_min":0,"x_max":0,"o":"m 64 906 l 122 836 l 240 915 b 393 732 308 844 356 785 l 390 729 b 286 761 367 750 339 761 b 58 494 181 761 58 694 l 58 217 b 347 -25 58 39 189 -25 b 636 217 515 -25 636 40 l 636 494 b 383 1010 636 731 522 856 l 482 1076 l 424 1146 l 318 1075 l 228 1165 l 88 1067 l 175 981 z m 279 511 b 347 601 279 561 296 601 b 415 511 399 601 415 561 l 415 203 b 347 135 415 158 393 135 b 279 203 301 135 279 158 z "},"×":{"ha":694,"x_min":0,"x_max":0,"o":"m 235 354 l 46 165 l 160 53 l 347 242 l 536 53 l 649 165 l 461 354 l 649 543 l 536 656 l 347 467 l 160 656 l 46 543 z "},"³":{"ha":417,"x_min":0,"x_max":0,"o":"m 131 685 b 226 674 161 682 199 689 b 261 586 256 657 261 614 b 206 506 261 550 254 506 b 154 546 174 506 160 524 b 149 618 149 569 150 597 l 6 618 l 6 575 b 203 401 6 464 79 401 b 411 586 333 401 411 460 b 304 739 411 653 388 721 l 304 742 b 396 881 369 769 396 815 b 203 1042 396 994 318 1042 b 6 890 108 1042 6 985 l 6 844 l 150 844 b 156 903 151 861 150 885 b 199 936 161 922 172 936 b 251 872 242 936 251 907 b 224 801 251 850 243 815 b 131 785 197 785 161 786 z "},"©":{"ha":1153,"x_min":0,"x_max":0,"o":"m 731 425 b 590 325 726 358 657 325 b 426 533 476 325 426 429 b 593 736 426 642 476 736 b 731 635 663 736 718 703 l 854 635 b 596 842 831 765 728 842 b 297 528 411 842 297 708 b 599 213 297 351 417 213 b 854 425 726 213 839 293 z m 576 -25 b 1124 522 907 -25 1124 219 b 576 1067 1124 806 935 1067 b 29 522 190 1067 29 775 b 576 -25 29 261 193 -25 z m 574 933 b 988 528 818 933 988 772 b 574 108 988 281 818 108 b 165 522 328 108 165 275 b 574 933 165 767 328 933 z "},"Á":{"ha":772,"x_min":0,"x_max":0,"o":"m 258 0 l 288 203 l 479 203 l 514 0 l 761 0 l 535 1042 l 240 1042 l 13 0 z m 456 386 l 314 386 l 385 853 l 388 853 z m 382 1350 l 243 1144 l 433 1144 l 671 1350 z "},"Â":{"ha":772,"x_min":0,"x_max":0,"o":"m 258 0 l 288 203 l 479 203 l 514 0 l 761 0 l 535 1042 l 240 1042 l 13 0 z m 456 386 l 314 386 l 385 853 l 388 853 z m 92 1117 l 296 1117 l 374 1221 l 450 1117 l 656 1117 l 488 1322 l 258 1322 z "},"Ä":{"ha":772,"x_min":0,"x_max":0,"o":"m 258 0 l 288 203 l 479 203 l 514 0 l 761 0 l 535 1042 l 240 1042 l 13 0 z m 456 386 l 314 386 l 385 853 l 388 853 z m 128 1333 l 128 1153 l 347 1153 l 347 1333 z m 428 1153 l 647 1153 l 647 1333 l 428 1333 z "},"À":{"ha":772,"x_min":0,"x_max":0,"o":"m 258 0 l 288 203 l 479 203 l 514 0 l 761 0 l 535 1042 l 240 1042 l 13 0 z m 456 386 l 314 386 l 385 853 l 388 853 z m 103 1350 l 340 1144 l 531 1144 l 392 1350 z "},"Å":{"ha":772,"x_min":0,"x_max":0,"o":"m 258 0 l 288 203 l 479 203 l 514 0 l 761 0 l 535 1042 l 240 1042 l 13 0 z m 456 386 l 314 386 l 385 853 l 388 853 z m 388 1076 b 543 1233 474 1076 543 1149 b 388 1389 543 1318 472 1389 b 231 1233 303 1389 231 1319 b 388 1076 231 1147 301 1076 z m 388 1306 b 460 1233 425 1306 460 1271 b 388 1161 460 1196 426 1161 b 315 1233 349 1161 315 1194 b 388 1306 315 1272 350 1306 z "},"Ã":{"ha":772,"x_min":0,"x_max":0,"o":"m 258 0 l 288 203 l 479 203 l 514 0 l 761 0 l 535 1042 l 240 1042 l 13 0 z m 456 386 l 314 386 l 385 853 l 388 853 z m 485 1125 b 658 1310 594 1125 647 1211 l 547 1310 b 489 1258 546 1283 517 1258 b 401 1286 464 1258 435 1272 b 286 1313 368 1299 331 1313 b 115 1117 172 1313 133 1210 l 225 1117 b 286 1176 231 1147 253 1176 b 369 1151 308 1176 338 1164 b 485 1125 403 1138 442 1125 z "},"Ç":{"ha":772,"x_min":0,"x_max":0,"o":"m 269 -128 l 306 -161 b 364 -147 324 -151 344 -146 b 419 -196 389 -149 418 -164 b 347 -247 421 -231 382 -247 b 228 -219 306 -247 268 -231 l 199 -283 b 382 -322 263 -306 313 -322 b 557 -189 460 -322 557 -278 b 426 -82 557 -117 490 -85 b 375 -89 407 -82 388 -83 l 372 -86 l 414 -22 b 719 279 631 -7 719 113 l 719 407 l 475 407 l 475 313 b 385 163 475 249 468 163 b 297 256 321 163 297 197 l 299 771 b 393 879 299 839 317 881 b 471 744 439 879 471 833 l 471 678 l 715 678 l 715 765 b 382 1067 715 978 590 1067 b 54 735 158 1067 54 961 l 54 307 b 333 -22 54 106 132 -12 z "},"É":{"ha":694,"x_min":0,"x_max":0,"o":"m 640 0 l 640 208 l 308 208 l 308 433 l 614 433 l 614 642 l 308 642 l 308 833 l 624 833 l 624 1042 l 64 1042 l 64 0 z m 343 1350 l 204 1144 l 394 1144 l 632 1350 z "},"Ê":{"ha":694,"x_min":0,"x_max":0,"o":"m 640 0 l 640 208 l 308 208 l 308 433 l 614 433 l 614 642 l 308 642 l 308 833 l 624 833 l 624 1042 l 64 1042 l 64 0 z m 67 1117 l 271 1117 l 349 1221 l 425 1117 l 631 1117 l 463 1322 l 233 1322 z "},"Ë":{"ha":694,"x_min":0,"x_max":0,"o":"m 640 0 l 640 208 l 308 208 l 308 433 l 614 433 l 614 642 l 308 642 l 308 833 l 624 833 l 624 1042 l 64 1042 l 64 0 z m 89 1333 l 89 1153 l 308 1153 l 308 1333 z m 389 1153 l 608 1153 l 608 1333 l 389 1333 z "},"È":{"ha":694,"x_min":0,"x_max":0,"o":"m 640 0 l 640 208 l 308 208 l 308 433 l 614 433 l 614 642 l 308 642 l 308 833 l 624 833 l 624 1042 l 64 1042 l 64 0 z m 64 1350 l 301 1144 l 492 1144 l 353 1350 z "},"Í":{"ha":386,"x_min":0,"x_max":0,"o":"m 315 0 l 315 1042 l 71 1042 l 71 0 z m 189 1350 l 50 1144 l 240 1144 l 478 1350 z "},"Î":{"ha":386,"x_min":0,"x_max":0,"o":"m 315 0 l 315 1042 l 71 1042 l 71 0 z m -87 1117 l 117 1117 l 194 1221 l 271 1117 l 476 1117 l 308 1322 l 79 1322 z "},"Ï":{"ha":386,"x_min":0,"x_max":0,"o":"m 315 0 l 315 1042 l 71 1042 l 71 0 z m -65 1333 l -65 1153 l 154 1153 l 154 1333 z m 235 1153 l 454 1153 l 454 1333 l 235 1333 z "},"Ì":{"ha":386,"x_min":0,"x_max":0,"o":"m 315 0 l 315 1042 l 71 1042 l 71 0 z m -90 1350 l 147 1144 l 338 1144 l 199 1350 z "},"Ñ":{"ha":772,"x_min":0,"x_max":0,"o":"m 463 0 l 713 0 l 713 1042 l 481 1042 l 504 460 l 500 460 l 311 1042 l 60 1042 l 60 0 l 292 0 l 269 581 l 272 583 z m 485 1125 b 658 1310 594 1125 647 1211 l 547 1310 b 489 1258 546 1283 517 1258 b 401 1286 464 1258 435 1272 b 286 1313 368 1299 331 1313 b 115 1117 172 1313 133 1210 l 225 1117 b 286 1176 231 1147 253 1176 b 369 1151 308 1176 338 1164 b 485 1125 403 1138 442 1125 z "},"Ó":{"ha":772,"x_min":0,"x_max":0,"o":"m 474 311 b 389 163 474 251 468 163 b 300 311 310 163 300 251 l 300 739 b 388 879 300 803 310 879 b 474 739 468 879 474 803 z m 718 756 b 389 1067 718 956 603 1067 b 56 756 175 1067 56 956 l 56 332 b 389 -25 56 97 142 -25 b 718 332 636 -25 718 97 z m 382 1350 l 243 1144 l 433 1144 l 671 1350 z "},"Ô":{"ha":772,"x_min":0,"x_max":0,"o":"m 474 311 b 389 163 474 251 468 163 b 300 311 310 163 300 251 l 300 739 b 388 879 300 803 310 879 b 474 739 468 879 474 803 z m 718 756 b 389 1067 718 956 603 1067 b 56 756 175 1067 56 956 l 56 332 b 389 -25 56 97 142 -25 b 718 332 636 -25 718 97 z m 106 1117 l 310 1117 l 388 1221 l 464 1117 l 669 1117 l 501 1322 l 272 1322 z "},"Ö":{"ha":772,"x_min":0,"x_max":0,"o":"m 474 311 b 389 163 474 251 468 163 b 300 311 310 163 300 251 l 300 739 b 388 879 300 803 310 879 b 474 739 468 879 474 803 z m 718 756 b 389 1067 718 956 603 1067 b 56 756 175 1067 56 956 l 56 332 b 389 -25 56 97 142 -25 b 718 332 636 -25 718 97 z m 128 1333 l 128 1153 l 347 1153 l 347 1333 z m 428 1153 l 647 1153 l 647 1333 l 428 1333 z "},"Ò":{"ha":772,"x_min":0,"x_max":0,"o":"m 474 311 b 389 163 474 251 468 163 b 300 311 310 163 300 251 l 300 739 b 388 879 300 803 310 879 b 474 739 468 879 474 803 z m 718 756 b 389 1067 718 956 603 1067 b 56 756 175 1067 56 956 l 56 332 b 389 -25 56 97 142 -25 b 718 332 636 -25 718 97 z m 103 1350 l 340 1144 l 531 1144 l 392 1350 z "},"Õ":{"ha":772,"x_min":0,"x_max":0,"o":"m 474 311 b 389 163 474 251 468 163 b 300 311 310 163 300 251 l 300 739 b 388 879 300 803 310 879 b 474 739 468 879 474 803 z m 718 756 b 389 1067 718 956 603 1067 b 56 756 175 1067 56 956 l 56 332 b 389 -25 56 97 142 -25 b 718 332 636 -25 718 97 z m 485 1125 b 658 1310 594 1125 647 1211 l 547 1310 b 489 1258 546 1283 517 1258 b 401 1286 464 1258 435 1272 b 286 1313 368 1299 331 1313 b 115 1117 172 1313 133 1210 l 225 1117 b 286 1176 231 1147 253 1176 b 369 1151 308 1176 338 1164 b 485 1125 403 1138 442 1125 z "},"Š":{"ha":694,"x_min":0,"x_max":0,"o":"m 22 349 l 22 238 b 340 -25 22 100 117 -25 b 654 286 543 -25 654 86 b 564 535 654 413 621 482 b 336 682 507 588 428 624 b 263 810 288 715 256 747 b 347 879 268 856 297 883 b 428 729 428 874 425 790 l 653 729 b 343 1067 664 925 556 1067 b 36 771 154 1067 36 967 b 107 563 36 679 63 615 b 292 426 153 510 217 469 b 428 267 356 388 428 354 b 346 163 428 214 403 163 b 249 275 268 163 249 215 l 249 349 z m 349 1218 l 271 1322 l 67 1322 l 233 1117 l 463 1117 l 631 1322 l 425 1322 z "},"Ú":{"ha":772,"x_min":0,"x_max":0,"o":"m 58 288 b 386 -25 58 74 179 -25 b 715 288 636 -25 715 111 l 715 1042 l 471 1042 l 471 263 b 388 163 471 218 451 163 b 303 256 318 163 303 206 l 303 1042 l 58 1042 z m 382 1350 l 243 1144 l 433 1144 l 671 1350 z "},"Û":{"ha":772,"x_min":0,"x_max":0,"o":"m 58 288 b 386 -25 58 74 179 -25 b 715 288 636 -25 715 111 l 715 1042 l 471 1042 l 471 263 b 388 163 471 218 451 163 b 303 256 318 163 303 206 l 303 1042 l 58 1042 z m 106 1117 l 310 1117 l 388 1221 l 464 1117 l 669 1117 l 501 1322 l 272 1322 z "},"Ü":{"ha":772,"x_min":0,"x_max":0,"o":"m 58 288 b 386 -25 58 74 179 -25 b 715 288 636 -25 715 111 l 715 1042 l 471 1042 l 471 263 b 388 163 471 218 451 163 b 303 256 318 163 303 206 l 303 1042 l 58 1042 z m 128 1333 l 128 1153 l 347 1153 l 347 1333 z m 428 1153 l 647 1153 l 647 1333 l 428 1333 z "},"Ù":{"ha":772,"x_min":0,"x_max":0,"o":"m 58 288 b 386 -25 58 74 179 -25 b 715 288 636 -25 715 111 l 715 1042 l 471 1042 l 471 263 b 388 163 471 218 451 163 b 303 256 318 163 303 206 l 303 1042 l 58 1042 z m 103 1350 l 340 1144 l 531 1144 l 392 1350 z "},"Ý":{"ha":772,"x_min":0,"x_max":0,"o":"m 263 1042 l 15 1042 l 261 438 l 261 0 l 506 0 l 506 438 l 757 1042 l 513 1042 l 388 701 l 385 701 z m 382 1350 l 243 1144 l 433 1144 l 671 1350 z "},"Ÿ":{"ha":772,"x_min":0,"x_max":0,"o":"m 263 1042 l 15 1042 l 261 438 l 261 0 l 506 0 l 506 438 l 757 1042 l 513 1042 l 388 701 l 385 701 z m 128 1333 l 128 1153 l 347 1153 l 347 1333 z m 428 1153 l 647 1153 l 647 1333 l 428 1333 z "},"Ž":{"ha":617,"x_min":0,"x_max":0,"o":"m 36 833 l 322 833 l 14 186 l 14 0 l 603 0 l 603 208 l 286 208 l 589 847 l 589 1042 l 36 1042 z m 310 1218 l 232 1322 l 28 1322 l 194 1117 l 424 1117 l 592 1322 l 386 1322 z "},"á":{"ha":694,"x_min":0,"x_max":0,"o":"m 418 256 b 338 138 417 206 403 138 b 256 221 285 138 256 172 b 307 321 256 274 279 301 b 418 378 335 342 374 354 z m 442 0 l 657 0 b 639 86 647 28 639 57 l 639 563 b 342 800 639 733 560 800 b 122 739 253 800 176 782 b 43 532 68 696 39 629 l 264 532 b 349 653 268 597 268 653 b 418 572 393 653 418 615 b 226 447 418 489 322 479 b 33 183 129 415 33 360 b 236 -25 33 60 111 -25 b 426 69 324 -25 371 8 z m 343 1086 l 204 881 l 394 881 l 632 1086 z "},"â":{"ha":694,"x_min":0,"x_max":0,"o":"m 418 256 b 338 138 417 206 403 138 b 256 221 285 138 256 172 b 307 321 256 274 279 301 b 418 378 335 342 374 354 z m 442 0 l 657 0 b 639 86 647 28 639 57 l 639 563 b 342 800 639 733 560 800 b 122 739 253 800 176 782 b 43 532 68 696 39 629 l 264 532 b 349 653 268 597 268 653 b 418 572 393 653 418 615 b 226 447 418 489 322 479 b 33 183 129 415 33 360 b 236 -25 33 60 111 -25 b 426 69 324 -25 371 8 z m 67 853 l 271 853 l 349 957 l 425 853 l 631 853 l 463 1058 l 233 1058 z "},"ä":{"ha":694,"x_min":0,"x_max":0,"o":"m 418 256 b 338 138 417 206 403 138 b 256 221 285 138 256 172 b 307 321 256 274 279 301 b 418 378 335 342 374 354 z m 442 0 l 657 0 b 639 86 647 28 639 57 l 639 563 b 342 800 639 733 560 800 b 122 739 253 800 176 782 b 43 532 68 696 39 629 l 264 532 b 349 653 268 597 268 653 b 418 572 393 653 418 615 b 226 447 418 489 322 479 b 33 183 129 415 33 360 b 236 -25 33 60 111 -25 b 426 69 324 -25 371 8 z m 89 1069 l 89 889 l 308 889 l 308 1069 z m 389 889 l 608 889 l 608 1069 l 389 1069 z "},"à":{"ha":694,"x_min":0,"x_max":0,"o":"m 418 256 b 338 138 417 206 403 138 b 256 221 285 138 256 172 b 307 321 256 274 279 301 b 418 378 335 342 374 354 z m 442 0 l 657 0 b 639 86 647 28 639 57 l 639 563 b 342 800 639 733 560 800 b 122 739 253 800 176 782 b 43 532 68 696 39 629 l 264 532 b 349 653 268 597 268 653 b 418 572 393 653 418 615 b 226 447 418 489 322 479 b 33 183 129 415 33 360 b 236 -25 33 60 111 -25 b 426 69 324 -25 371 8 z m 64 1086 l 301 881 l 492 881 l 353 1086 z "},"å":{"ha":694,"x_min":0,"x_max":0,"o":"m 418 256 b 338 138 417 206 403 138 b 256 221 285 138 256 172 b 307 321 256 274 279 301 b 418 378 335 342 374 354 z m 442 0 l 657 0 b 639 86 647 28 639 57 l 639 563 b 342 800 639 733 560 800 b 122 739 253 800 176 782 b 43 532 68 696 39 629 l 264 532 b 349 653 268 597 268 653 b 418 572 393 653 418 615 b 226 447 418 489 322 479 b 33 183 129 415 33 360 b 236 -25 33 60 111 -25 b 426 69 324 -25 371 8 z m 349 868 b 504 1025 435 868 504 940 b 349 1181 504 1110 433 1181 b 192 1025 264 1181 192 1111 b 349 868 192 939 263 868 z m 349 1097 b 421 1025 386 1097 421 1063 b 349 953 421 988 388 953 b 276 1025 310 953 276 986 b 349 1097 276 1064 311 1097 z "},"ã":{"ha":694,"x_min":0,"x_max":0,"o":"m 418 256 b 338 138 417 206 403 138 b 256 221 285 138 256 172 b 307 321 256 274 279 301 b 418 378 335 342 374 354 z m 442 0 l 657 0 b 639 86 647 28 639 57 l 639 563 b 342 800 639 733 560 800 b 122 739 253 800 176 782 b 43 532 68 696 39 629 l 264 532 b 349 653 268 597 268 653 b 418 572 393 653 418 615 b 226 447 418 489 322 479 b 33 183 129 415 33 360 b 236 -25 33 60 111 -25 b 426 69 324 -25 371 8 z m 446 861 b 619 1046 556 861 608 947 l 508 1046 b 450 994 507 1019 478 994 b 363 1022 425 994 396 1008 b 247 1049 329 1035 292 1049 b 76 853 133 1049 94 946 l 186 853 b 247 913 192 883 214 913 b 331 888 269 913 299 900 b 446 861 364 874 403 861 z "},"ç":{"ha":694,"x_min":0,"x_max":0,"o":"m 235 -128 l 271 -161 b 329 -147 289 -151 310 -146 b 385 -196 354 -149 383 -164 b 313 -247 386 -231 347 -247 b 193 -219 271 -247 233 -231 l 164 -283 b 347 -322 228 -306 278 -322 b 522 -189 425 -322 522 -278 b 392 -82 522 -117 456 -85 b 340 -89 372 -82 353 -83 l 338 -86 l 379 -22 b 415 -21 394 -22 406 -21 b 624 131 511 -11 594 33 b 642 315 636 172 642 269 l 428 315 b 360 135 428 257 442 135 b 289 225 303 135 289 176 l 289 546 b 356 640 289 596 299 640 b 415 592 389 640 406 624 b 424 503 421 563 419 532 l 425 489 l 633 489 b 342 800 646 703 560 797 b 68 533 171 800 68 733 l 68 217 b 299 -22 68 56 163 -11 z "},"é":{"ha":694,"x_min":0,"x_max":0,"o":"m 274 499 l 274 550 b 351 654 274 604 289 654 b 426 575 408 654 426 603 l 426 499 z m 647 353 l 647 575 b 350 800 647 743 504 801 b 53 533 179 799 53 733 l 53 217 b 350 -25 53 39 192 -26 b 639 269 542 -22 650 69 l 419 269 b 342 135 415 204 424 131 b 274 217 293 138 274 174 l 274 353 z m 343 1086 l 204 881 l 394 881 l 632 1086 z "},"ê":{"ha":694,"x_min":0,"x_max":0,"o":"m 274 499 l 274 550 b 351 654 274 604 289 654 b 426 575 408 654 426 603 l 426 499 z m 647 353 l 647 575 b 350 800 647 743 504 801 b 53 533 179 799 53 733 l 53 217 b 350 -25 53 39 192 -26 b 639 269 542 -22 650 69 l 419 269 b 342 135 415 204 424 131 b 274 217 293 138 274 174 l 274 353 z m 67 853 l 271 853 l 349 957 l 425 853 l 631 853 l 463 1058 l 233 1058 z "},"ë":{"ha":694,"x_min":0,"x_max":0,"o":"m 274 499 l 274 550 b 351 654 274 604 289 654 b 426 575 408 654 426 603 l 426 499 z m 647 353 l 647 575 b 350 800 647 743 504 801 b 53 533 179 799 53 733 l 53 217 b 350 -25 53 39 192 -26 b 639 269 542 -22 650 69 l 419 269 b 342 135 415 204 424 131 b 274 217 293 138 274 174 l 274 353 z m 89 1069 l 89 889 l 308 889 l 308 1069 z m 389 889 l 608 889 l 608 1069 l 389 1069 z "},"è":{"ha":694,"x_min":0,"x_max":0,"o":"m 274 499 l 274 550 b 351 654 274 604 289 654 b 426 575 408 654 426 603 l 426 499 z m 647 353 l 647 575 b 350 800 647 743 504 801 b 53 533 179 799 53 733 l 53 217 b 350 -25 53 39 192 -26 b 639 269 542 -22 650 69 l 419 269 b 342 135 415 204 424 131 b 274 217 293 138 274 174 l 274 353 z m 64 1086 l 301 881 l 492 881 l 353 1086 z "},"í":{"ha":386,"x_min":0,"x_max":0,"o":"m 304 0 l 304 778 l 83 778 l 83 0 z m 189 1086 l 50 881 l 240 881 l 478 1086 z "},"î":{"ha":386,"x_min":0,"x_max":0,"o":"m 304 0 l 304 778 l 83 778 l 83 0 z m -103 853 l 101 853 l 179 957 l 256 853 l 461 853 l 293 1058 l 64 1058 z "},"ï":{"ha":386,"x_min":0,"x_max":0,"o":"m 304 0 l 304 778 l 83 778 l 83 0 z m -65 1069 l -65 889 l 154 889 l 154 1069 z m 235 889 l 454 889 l 454 1069 l 235 1069 z "},"ì":{"ha":386,"x_min":0,"x_max":0,"o":"m 304 0 l 304 778 l 83 778 l 83 0 z m -90 1086 l 147 881 l 338 881 l 199 1086 z "},"ñ":{"ha":694,"x_min":0,"x_max":0,"o":"m 68 778 l 68 0 l 289 0 l 289 556 b 349 619 289 596 310 618 b 407 556 390 622 404 592 l 407 0 l 628 0 l 628 638 b 431 800 628 743 535 800 b 276 681 361 800 297 740 l 274 681 l 274 778 z m 446 861 b 619 1046 556 861 608 947 l 508 1046 b 450 994 507 1019 478 994 b 363 1022 425 994 396 1008 b 247 1049 329 1035 292 1049 b 76 853 133 1049 94 946 l 186 853 b 247 913 192 883 214 913 b 331 888 269 913 299 900 b 446 861 364 874 403 861 z "},"ó":{"ha":694,"x_min":0,"x_max":0,"o":"m 58 217 b 347 -25 58 39 189 -25 b 636 217 515 -25 625 40 l 636 533 b 347 800 636 708 542 800 b 58 533 176 800 58 733 z m 279 550 b 347 640 279 600 296 640 b 415 550 399 640 415 600 l 415 203 b 347 135 411 158 393 135 b 279 203 301 135 283 158 z m 343 1086 l 204 881 l 394 881 l 632 1086 z "},"ô":{"ha":694,"x_min":0,"x_max":0,"o":"m 58 217 b 347 -25 58 39 189 -25 b 636 217 515 -25 625 40 l 636 533 b 347 800 636 708 542 800 b 58 533 176 800 58 733 z m 279 550 b 347 640 279 600 296 640 b 415 550 399 640 415 600 l 415 203 b 347 135 411 158 393 135 b 279 203 301 135 283 158 z m 67 853 l 271 853 l 349 957 l 425 853 l 631 853 l 463 1058 l 233 1058 z "},"ö":{"ha":694,"x_min":0,"x_max":0,"o":"m 58 217 b 347 -25 58 39 189 -25 b 636 217 515 -25 625 40 l 636 533 b 347 800 636 708 542 800 b 58 533 176 800 58 733 z m 279 550 b 347 640 279 600 296 640 b 415 550 399 640 415 600 l 415 203 b 347 135 411 158 393 135 b 279 203 301 135 283 158 z m 89 1069 l 89 889 l 308 889 l 308 1069 z m 389 889 l 608 889 l 608 1069 l 389 1069 z "},"ò":{"ha":694,"x_min":0,"x_max":0,"o":"m 58 217 b 347 -25 58 39 189 -25 b 636 217 515 -25 625 40 l 636 533 b 347 800 636 708 542 800 b 58 533 176 800 58 733 z m 279 550 b 347 640 279 600 296 640 b 415 550 399 640 415 600 l 415 203 b 347 135 411 158 393 135 b 279 203 301 135 283 158 z m 64 1086 l 301 881 l 492 881 l 353 1086 z "},"õ":{"ha":694,"x_min":0,"x_max":0,"o":"m 58 217 b 347 -25 58 39 189 -25 b 636 217 515 -25 625 40 l 636 533 b 347 800 636 708 542 800 b 58 533 176 800 58 733 z m 279 550 b 347 640 279 600 296 640 b 415 550 399 640 415 600 l 415 203 b 347 135 411 158 393 135 b 279 203 301 135 283 158 z m 446 861 b 619 1046 556 861 608 947 l 508 1046 b 450 994 507 1019 478 994 b 363 1022 425 994 396 1008 b 247 1049 329 1035 292 1049 b 76 853 133 1049 94 946 l 186 853 b 247 913 192 883 214 913 b 331 888 269 913 299 900 b 446 861 364 874 403 861 z "},"š":{"ha":617,"x_min":0,"x_max":0,"o":"m 589 547 b 307 800 597 719 468 800 b 19 560 153 800 19 728 b 75 414 19 503 38 457 b 357 254 144 335 268 301 b 386 194 375 240 386 218 b 307 121 386 144 354 121 b 242 158 274 121 253 136 b 228 238 229 182 226 211 l 17 238 b 306 -25 8 50 131 -25 b 600 222 468 -25 600 49 b 303 510 600 407 446 444 b 235 589 269 526 235 547 b 308 654 235 635 265 654 b 369 621 344 654 361 640 b 382 547 379 600 379 574 z m 296 954 l 218 1058 l 14 1058 l 181 853 l 410 853 l 578 1058 l 372 1058 z "},"ú":{"ha":694,"x_min":0,"x_max":0,"o":"m 624 0 l 624 778 l 403 778 l 403 221 b 339 156 403 181 378 157 b 285 221 297 153 288 185 l 285 778 l 64 778 l 64 139 b 261 -25 64 33 133 -25 b 415 96 331 -25 394 36 l 418 96 l 418 0 z m 343 1086 l 204 881 l 394 881 l 632 1086 z "},"û":{"ha":694,"x_min":0,"x_max":0,"o":"m 624 0 l 624 778 l 403 778 l 403 221 b 339 156 403 181 378 157 b 285 221 297 153 288 185 l 285 778 l 64 778 l 64 139 b 261 -25 64 33 133 -25 b 415 96 331 -25 394 36 l 418 96 l 418 0 z m 67 867 l 271 867 l 349 971 l 425 867 l 631 867 l 463 1072 l 233 1072 z "},"ü":{"ha":694,"x_min":0,"x_max":0,"o":"m 624 0 l 624 778 l 403 778 l 403 221 b 339 156 403 181 378 157 b 285 221 297 153 288 185 l 285 778 l 64 778 l 64 139 b 261 -25 64 33 133 -25 b 415 96 331 -25 394 36 l 418 96 l 418 0 z m 89 1069 l 89 889 l 308 889 l 308 1069 z m 389 889 l 608 889 l 608 1069 l 389 1069 z "},"ù":{"ha":694,"x_min":0,"x_max":0,"o":"m 624 0 l 624 778 l 403 778 l 403 221 b 339 156 403 181 378 157 b 285 221 297 153 288 185 l 285 778 l 64 778 l 64 139 b 261 -25 64 33 133 -25 b 415 96 331 -25 394 36 l 418 96 l 418 0 z m 64 1086 l 301 881 l 492 881 l 353 1086 z "},"ý":{"ha":617,"x_min":0,"x_max":0,"o":"m 231 778 l 8 778 l 163 74 b 188 -58 171 38 188 -22 b 121 -97 188 -89 144 -101 b 78 -92 107 -94 92 -93 l 78 -256 b 165 -262 100 -256 126 -262 b 461 113 407 -262 406 -99 l 601 778 l 385 778 l 308 275 l 306 275 z m 304 1086 l 165 881 l 356 881 l 593 1086 z "},"ÿ":{"ha":617,"x_min":0,"x_max":0,"o":"m 231 778 l 8 778 l 163 74 b 188 -58 171 38 188 -22 b 121 -97 188 -89 144 -101 b 78 -92 107 -94 92 -93 l 78 -256 b 165 -262 100 -256 126 -262 b 461 113 407 -262 406 -99 l 601 778 l 385 778 l 308 275 l 306 275 z m 50 1069 l 50 889 l 269 889 l 269 1069 z m 350 889 l 569 889 l 569 1069 l 350 1069 z "},"ž":{"ha":540,"x_min":0,"x_max":0,"o":"m 35 604 l 272 604 l 19 154 l 19 0 l 521 0 l 521 174 l 268 174 l 521 617 l 521 778 l 35 778 z m 271 954 l 193 1058 l -11 1058 l 156 853 l 385 853 l 553 1058 l 347 1058 z "},"€":{"ha":694,"x_min":0,"x_max":0,"o":"m 638 994 b 451 1042 611 1015 544 1042 b 119 681 250 1042 150 907 l 61 681 l 21 547 l 110 547 b 108 508 108 533 108 522 b 110 464 108 490 108 476 l 61 464 l 21 329 l 122 329 b 451 -24 153 88 264 -24 b 638 19 551 -24 613 0 l 638 215 b 490 163 611 188 560 163 b 331 329 397 163 346 215 l 493 329 l 533 464 l 317 464 b 315 508 317 476 315 493 b 317 547 315 522 315 536 l 558 547 l 599 681 l 329 681 b 489 854 343 797 393 854 b 638 797 565 854 613 828 z "}}}
